<?xml version="1.0" encoding="UTF-8" ?>
<!DOCTYPE svg PUBLIC "-//W3C//DTD SVG 1.1//EN" "http://www.w3.org/Graphics/SVG/1.1/DTD/svg11.dtd">
<svg width="162pt" height="162pt" viewBox="0 0 162 162" version="1.1" xmlns="http://www.w3.org/2000/svg">
<g id="#010101ff">
<path fill="#010101" opacity="1.00" d=" M 76.53 26.81 C 85.76 24.41 96.01 30.93 97.83 40.27 C 100.16 49.60 93.29 59.74 83.88 61.36 C 74.91 63.43 65.13 57.00 63.37 47.99 C 60.92 38.89 67.26 28.63 76.53 26.81 Z" />
<path fill="#010101" opacity="1.00" d=" M 126.73 35.56 C 137.24 35.64 147.75 35.55 158.25 35.61 C 158.14 46.12 158.18 56.64 158.26 67.15 C 147.78 67.20 137.30 67.04 126.83 67.23 C 126.65 56.67 126.82 46.12 126.73 35.56 Z" />
<path fill="#010101" opacity="1.00" d=" M 3.22 67.19 C 8.98 56.74 14.75 46.30 20.45 35.83 C 26.42 46.14 32.29 56.57 37.73 67.18 C 26.23 67.08 14.72 67.12 3.22 67.19 Z" />
<path fill="#010101" opacity="1.00" d=" M 59.36 76.40 C 63.85 71.53 70.45 68.91 77.04 68.90 C 83.21 68.68 89.71 68.70 95.32 71.64 C 100.63 74.23 104.17 79.15 107.92 83.52 C 112.25 88.59 116.46 93.76 120.83 98.80 C 124.66 90.38 128.06 81.74 132.36 73.56 C 138.93 73.16 145.55 73.41 152.13 73.47 C 155.46 72.94 155.77 78.42 153.17 79.46 C 149.10 80.85 144.52 79.06 140.46 80.40 C 135.97 90.38 131.57 100.40 127.22 110.44 C 126.04 114.19 120.36 114.96 118.05 111.92 C 114.63 108.01 111.61 103.76 107.95 100.07 C 105.86 113.21 103.55 126.33 102.04 139.55 C 87.70 139.81 73.34 139.69 58.99 139.61 C 57.67 126.33 54.85 113.25 53.26 100.00 C 49.54 103.72 46.52 108.08 43.03 112.00 C 40.82 114.81 35.40 114.27 34.20 110.73 C 29.58 100.57 25.11 90.35 20.71 80.09 C 16.05 79.23 10.57 81.44 6.56 78.32 C 6.53 77.22 6.49 76.12 6.45 75.01 C 7.00 74.49 7.55 73.97 8.11 73.45 C 14.97 73.32 21.84 73.41 28.71 73.38 C 32.84 81.70 36.81 90.14 40.08 98.83 C 46.84 91.65 52.74 83.70 59.36 76.40 Z" />
</g>
</svg>
